<?xml version="1.0" standalone="no"?>
<!DOCTYPE svg PUBLIC "-//W3C//DTD SVG 20010904//EN"
 "http://www.w3.org/TR/2001/REC-SVG-20010904/DTD/svg10.dtd">
<svg version="1.0" xmlns="http://www.w3.org/2000/svg"
 width="240.000000pt" height="240.000000pt" viewBox="0 0 240.000000 240.000000"
 preserveAspectRatio="xMidYMid meet">

<g transform="translate(0.000000,240.000000) scale(0.100000,-0.100000)"
fill="#000000" stroke="none">
<path d="M243 2364 c-29 -29 -33 -40 -33 -87 0 -30 8 -87 19 -128 14 -58 17
-98 13 -189 -5 -132 8 -229 45 -342 30 -90 88 -194 126 -221 13 -11 76 -36
138 -58 l114 -39 11 -83 c14 -102 33 -169 80 -281 21 -51 40 -83 47 -79 6 3 7
1 3 -5 -12 -19 93 -205 175 -311 22 -28 27 -121 7 -121 -10 0 -10 -2 0 -9 22
-13 -11 -76 -64 -124 -42 -38 -46 -47 -46 -85 1 -74 18 -108 69 -136 51 -29
60 -32 46 -13 -27 33 -21 108 10 130 8 6 7 7 -3 4 -23 -6 -41 -48 -36 -85 5
-36 6 -36 -29 -20 -28 13 -40 43 -33 88 2 16 1 27 -4 24 -4 -3 -8 5 -8 18 0
16 17 40 50 71 33 31 53 60 60 87 11 39 12 40 55 40 25 0 45 4 45 8 0 12 -70
43 -81 36 -7 -4 -9 9 -7 32 3 40 14 50 83 75 30 11 29 12 -35 27 -36 9 -68 21
-72 26 -4 6 -5 -7 -2 -29 l6 -40 -21 25 c-32 39 -138 252 -156 314 -18 61 -31
76 -20 23 11 -51 -1 -29 -39 68 -44 115 -64 195 -70 275 l-4 64 -84 24 -84 24
2 64 c2 73 -13 75 -35 4 -14 -49 -30 -50 -73 -7 -27 27 -98 143 -98 160 0 3
10 7 23 11 12 3 36 19 52 36 l30 31 -65 -3 -64 -3 -12 50 c-7 28 -13 62 -13
77 -1 26 2 27 52 30 40 3 48 5 32 12 -11 5 -37 20 -58 33 -37 23 -37 24 -37
87 0 70 -2 68 73 82 51 9 46 22 -10 26 l-48 3 -22 85 c-33 127 -28 220 11 220
12 0 31 29 24 35 -2 1 -18 -13 -35 -31z"/>
<path d="M297 2393 c-13 -12 -7 -70 7 -83 12 -9 17 -5 26 29 6 23 8 46 5 51
-7 11 -28 13 -38 3z"/>
<path d="M370 2395 c0 -11 29 -75 34 -75 7 0 36 56 36 70 0 5 -16 10 -35 10
-19 0 -35 -2 -35 -5z"/>
<path d="M526 2375 c22 -33 15 -123 -15 -191 -13 -31 -15 -42 -6 -29 21 27 45
110 45 156 0 40 -17 89 -32 89 -5 0 -1 -11 8 -25z"/>
<path d="M475 2367 c-6 -28 7 -87 20 -90 14 -3 29 47 22 75 -9 35 -35 44 -42
15z"/>
<path d="M242 2338 c-15 -15 -15 -55 -1 -64 14 -8 29 14 29 43 0 27 -13 36
-28 21z"/>
<path d="M332 2268 c-32 -32 5 -128 48 -128 21 0 50 46 50 77 0 49 -66 83 -98
51z"/>
<path d="M1020 2250 l0 -31 -26 20 c-31 24 -83 36 -115 26 l-22 -7 24 -19 24
-19 -43 0 c-46 0 -105 -21 -134 -47 -15 -14 -24 -14 -56 -5 -34 11 -39 10 -55
-10 -15 -18 -18 -35 -14 -89 4 -60 8 -72 52 -133 50 -71 51 -73 21 -154 -15
-41 -15 -46 3 -85 10 -23 32 -55 50 -71 17 -17 31 -33 31 -38 0 -4 -26 -8 -57
-8 -36 0 -53 -4 -45 -9 11 -7 9 -16 -11 -47 -24 -36 -46 -114 -33 -114 3 0 15
18 26 40 19 37 101 107 144 123 13 5 26 0 42 -17 30 -29 68 -38 120 -26 52 13
53 13 48 -7 -3 -12 9 -27 35 -45 22 -16 41 -28 44 -28 2 0 -2 26 -9 58 -18 76
-18 84 6 110 27 29 58 28 91 -4 l27 -26 15 28 14 27 32 -43 c29 -40 30 -45 14
-53 -30 -16 -64 -51 -81 -82 -16 -31 -53 -187 -46 -194 9 -9 56 46 94 110 22
38 50 73 60 79 16 8 19 17 14 38 -13 55 -44 113 -77 144 -19 18 -37 41 -40 51
-10 27 18 21 42 -9 18 -23 22 -24 27 -10 4 10 2 28 -5 42 -14 32 -14 41 1 26
27 -27 38 -13 39 46 0 48 2 54 11 35 6 -13 15 -23 19 -23 8 0 -7 64 -23 93 -8
15 -2 25 26 53 34 33 36 38 36 103 0 79 -22 160 -50 186 -19 17 -21 17 -76 -5
-31 -13 -69 -34 -84 -46 l-27 -24 -7 41 c-5 32 -9 39 -19 31 -9 -8 -16 -6 -25
8 -6 11 -21 24 -32 30 -18 10 -20 8 -20 -20z m-67 1 c14 -5 42 -27 62 -48 25
-25 36 -31 31 -18 -14 39 -18 75 -8 75 9 0 29 -36 45 -80 4 -12 6 -11 6 3 1
26 21 20 21 -7 0 -13 3 -32 6 -41 5 -13 10 -10 25 14 11 18 43 43 78 61 71 35
77 36 90 12 8 -15 6 -18 -12 -18 -16 1 -30 -14 -55 -54 -55 -92 -55 -98 29
-239 18 -30 27 -51 21 -47 -9 5 -12 -9 -12 -53 0 -34 -3 -61 -6 -61 -3 0 -17
9 -31 20 -34 26 -39 20 -18 -25 10 -19 15 -38 13 -40 -3 -3 -21 6 -41 20 -42
28 -47 18 -22 -42 24 -57 20 -65 -19 -42 -43 25 -72 15 -116 -40 -38 -47 -75
-64 -138 -64 -35 0 -49 5 -64 23 -21 26 -34 68 -23 78 4 4 42 7 84 7 76 0 79
1 126 39 42 35 46 41 29 47 -33 13 -50 11 -29 -5 17 -12 16 -15 -25 -45 -47
-34 -65 -37 -105 -19 -33 15 -32 33 4 48 45 18 71 48 70 78 -1 23 -2 24 -7 7
-5 -13 -17 -21 -37 -23 -126 -12 -155 -1 -113 41 15 15 25 37 26 61 3 38 -30
126 -47 126 -5 0 -3 -14 6 -31 19 -37 15 -42 -24 -27 -50 19 -62 8 -50 -48 8
-34 19 -51 38 -63 20 -13 25 -21 18 -31 -14 -24 -11 -29 38 -77 l46 -46 -27
-14 c-25 -13 -29 -13 -42 4 -16 21 -18 10 -3 -18 12 -23 3 -62 -13 -53 -5 4
-19 25 -29 48 -16 35 -19 37 -19 16 l0 -25 -20 25 c-22 28 -25 61 -9 92 10 18
9 20 -6 15 -11 -5 -15 -3 -11 5 23 57 28 91 20 144 -4 35 -9 49 -12 36 l-4
-24 -24 23 c-31 29 -30 36 6 41 17 3 30 0 30 -6 0 -12 20 14 20 26 0 4 -12 3
-26 -2 -14 -6 -37 -10 -52 -10 -26 0 -26 0 10 25 36 24 84 107 73 125 -3 5 11
18 31 31 28 17 57 24 117 27 l80 5 -36 19 c-20 10 -37 21 -37 23 0 8 48 5 73
-4z m-289 -174 c18 -13 17 -14 -9 -35 -16 -12 -29 -21 -30 -20 -1 2 -5 22 -9
46 -7 46 -2 47 48 9z m677 -94 c-14 -26 -68 -56 -76 -42 -4 5 -5 11 -4 12 2 1
22 12 44 23 22 12 41 22 43 23 1 1 -2 -7 -7 -16z m-581 -77 c0 -33 25 -53 45
-36 12 10 15 9 15 -8 0 -27 -28 -36 -56 -17 -18 11 -24 25 -24 50 0 19 5 35
10 35 6 0 10 -11 10 -24z m25 -6 c1 -11 -2 -20 -7 -20 -4 0 -8 12 -8 27 0 30
13 24 15 -7z"/>
<path d="M984 2036 c-19 -19 -34 -40 -34 -47 0 -7 14 2 31 19 40 41 80 43 114
6 14 -15 25 -32 25 -37 0 -6 3 -8 6 -5 9 10 -24 65 -48 82 -34 24 -57 19 -94
-18z"/>
<path d="M1004 1916 c-24 -24 -34 -43 -34 -65 0 -27 4 -31 35 -37 22 -4 50 -1
73 8 33 13 37 18 37 51 0 26 4 36 13 32 8 -3 6 5 -5 20 -28 37 -76 34 -119 -9z
m43 -21 c13 -29 -1 -34 -17 -6 -12 23 -13 31 -2 31 4 0 12 -11 19 -25z m34
-23 c28 16 29 16 29 -2 0 -26 -29 -40 -84 -40 -41 0 -46 2 -46 23 0 40 20 50
48 25 22 -22 24 -22 53 -6z"/>
<path d="M750 1763 c0 -5 5 -15 10 -23 8 -12 10 -11 10 8 0 12 -4 22 -10 22
-5 0 -10 -3 -10 -7z"/>
<path d="M468 2113 c-31 -35 -43 -69 -43 -117 l0 -50 -48 -16 c-56 -20 -51
-30 15 -30 45 0 48 -1 48 -27 0 -14 2 -24 5 -21 3 3 1 45 -5 94 -10 89 -10 89
20 137 31 50 33 59 8 30z"/>
<path d="M455 1813 c5 -37 -5 -43 -73 -44 l-47 -1 35 -15 c19 -8 51 -18 72
-20 30 -5 39 -12 53 -43 16 -35 16 -40 1 -61 -9 -13 -16 -37 -16 -53 l0 -30
29 32 c33 36 44 38 81 17 14 -8 32 -14 40 -14 8 -1 -3 8 -25 18 -66 30 -108
89 -141 201 -9 30 -12 34 -9 13z"/>
<path d="M1281 1389 c-38 -73 -61 -169 -60 -254 l1 -60 19 73 c21 83 23 87 67
137 27 30 36 35 43 24 13 -20 11 -12 -14 70 l-23 73 -33 -63z"/>
<path d="M920 1337 c-18 -79 -7 -99 67 -127 32 -12 71 -33 87 -48 l29 -27 -12
25 c-7 14 -39 50 -72 80 -48 45 -62 65 -73 105 l-13 50 -13 -58z"/>
<path d="M1847 1314 c-3 -3 -1 -17 4 -31 5 -14 7 -28 4 -32 -2 -5 7 -6 20 -3
21 4 22 6 10 19 -14 13 -19 28 -16 46 1 8 -13 9 -22 1z"/>
<path d="M1936 1288 c1 -47 29 -50 29 -3 0 24 -5 35 -15 35 -10 0 -15 -10 -14
-32z"/>
<path d="M1998 1298 c25 -12 28 -28 10 -46 -9 -9 -8 -16 7 -30 11 -10 14 -11
8 -2 -9 11 -8 20 3 34 14 19 14 19 41 -5 14 -13 23 -18 19 -11 -11 18 -86 72
-100 71 -6 0 -1 -5 12 -11z"/>
<path d="M1747 1248 c-43 -58 -51 -81 -51 -153 0 -82 19 -125 87 -201 60 -66
219 -210 211 -191 -3 9 6 23 24 36 29 20 30 20 46 2 17 -18 16 -20 -2 -25 -11
-4 -27 -15 -37 -26 -16 -18 -16 -20 3 -45 11 -14 23 -21 27 -16 3 6 23 16 45
22 34 10 38 14 29 31 -6 11 -27 36 -48 56 -42 42 -168 142 -158 126 3 -6 -5
-22 -18 -34 -20 -19 -28 -21 -38 -11 -9 10 -7 17 14 34 l25 22 -49 60 c-87
104 -104 167 -67 240 11 21 15 34 9 28 -8 -8 -19 -8 -39 0 l-29 11 21 29 21
29 22 -28 c12 -15 27 -24 33 -20 13 8 -24 56 -44 56 -7 0 -24 -15 -37 -32z
m12 -77 c7 -5 10 -14 7 -20 -10 -16 -56 -14 -56 2 0 26 23 35 49 18z m-9 -71
c16 -10 15 -12 -22 -28 -25 -10 -28 -9 -28 7 0 31 21 40 50 21z m25 -60 c7
-11 -49 -42 -59 -33 -12 12 -6 21 22 31 15 6 28 11 29 11 1 1 4 -3 8 -9z m35
-63 c0 -7 -11 -20 -24 -29 -20 -15 -26 -15 -35 -4 -9 11 -6 19 15 35 26 21 44
20 44 -2z m47 -58 c8 -8 5 -17 -11 -33 -19 -20 -23 -21 -39 -7 -16 13 -16 15
-1 33 19 21 35 23 51 7z m119 -148 c-20 -20 -28 -23 -38 -13 -18 18 29 67 49
50 12 -9 10 -16 -11 -37z"/>
<path d="M1360 1208 c-1 -29 -7 -69 -14 -90 -18 -50 2 -40 37 18 l28 46 -18
39 c-10 21 -21 39 -25 39 -5 0 -8 -24 -8 -52z"/>
<path d="M2090 1211 c0 -6 4 -13 10 -16 6 -3 7 1 4 9 -7 18 -14 21 -14 7z"/>
<path d="M1422 1144 c-1 -17 -25 -51 -62 -91 -33 -35 -60 -68 -60 -73 0 -4 -3
-17 -6 -27 -4 -10 10 1 30 24 36 41 148 116 174 116 7 0 9 3 5 6 -4 3 -24 21
-43 38 l-36 33 -2 -26z"/>
<path d="M1181 1109 c-1 -25 6 -68 14 -96 14 -46 14 -61 0 -139 -8 -48 -20
-174 -27 -280 l-11 -193 26 -52 c20 -36 27 -66 27 -105 0 -60 -33 -159 -58
-174 -11 -6 -12 -10 -4 -10 7 0 20 13 29 29 l17 28 22 -47 c26 -56 47 -70 103
-70 47 0 48 3 21 30 -11 11 -17 26 -14 34 3 8 1 17 -5 20 -14 9 -33 -31 -26
-54 4 -13 2 -20 -7 -20 -19 0 -40 63 -32 94 9 36 -4 32 -20 -5 l-13 -32 -8 49
c-10 68 11 84 108 84 91 0 202 19 189 32 -6 6 -17 6 -29 0 -35 -19 -118 -25
-144 -11 -36 19 -139 120 -156 152 -11 22 -13 53 -8 150 8 140 31 347 44 393
6 23 3 59 -14 135 -20 89 -23 97 -24 58z"/>
<path d="M2070 1094 c0 -6 7 -19 16 -30 14 -18 14 -18 3 6 -14 31 -19 36 -19
24z"/>
<path d="M1527 1061 c-3 -14 -17 -22 -43 -26 -56 -9 -101 -31 -114 -55 -11
-21 -11 -21 15 -4 22 14 39 16 113 9 48 -4 101 -9 119 -10 18 -1 39 -8 48 -15
32 -26 3 -33 -119 -27 -134 7 -189 -1 -220 -33 l-21 -21 40 17 c32 13 60 15
140 11 103 -6 245 -30 280 -48 24 -12 -133 142 -192 188 -37 30 -41 31 -46 14z"/>
<path d="M1378 860 c-148 -45 -169 -194 -57 -411 41 -78 141 -209 160 -209 7
0 -6 19 -28 43 -126 137 -211 343 -183 446 16 60 53 98 115 117 51 16 56 16
102 -2 70 -28 73 -28 23 0 -46 26 -85 30 -132 16z"/>
<path d="M1596 821 c16 -17 158 -70 205 -77 24 -4 50 -12 58 -18 20 -15 -17
48 -46 80 -21 22 -29 24 -125 24 -63 0 -98 -4 -92 -9z"/>
<path d="M960 763 c0 -22 6 -48 14 -58 13 -18 15 -18 74 1 56 18 59 20 39 31
-12 7 -32 12 -44 13 -12 0 -35 12 -52 26 l-31 26 0 -39z"/>
<path d="M1886 675 c17 -58 17 -75 -1 -75 -9 0 -49 14 -88 31 -53 24 -90 33
-142 35 -61 3 -65 2 -28 -6 53 -11 89 -30 186 -97 43 -29 82 -53 88 -53 23 0
7 -41 -22 -55 -40 -21 -65 -12 -160 54 -40 28 -77 51 -83 51 -15 0 124 -139
156 -156 15 -8 40 -14 57 -14 25 0 32 7 51 46 19 38 22 57 18 117 -3 40 -13
88 -22 107 -9 19 -14 26 -10 15z"/>
<path d="M1406 622 c21 -16 77 -71 123 -121 46 -51 107 -108 135 -128 51 -35
51 -35 16 -28 -19 4 -70 23 -113 42 -114 50 -138 40 -40 -19 100 -59 170 -82
229 -75 l46 5 -28 -19 c-25 -16 -28 -23 -25 -68 l2 -50 -53 -35 c-30 -20 -99
-56 -153 -81 -55 -25 -91 -45 -80 -45 30 0 219 96 260 131 30 27 35 37 35 77
0 40 5 50 36 79 20 18 42 33 48 33 6 0 4 5 -4 10 -8 5 -10 10 -5 11 6 0 -12 7
-40 16 -55 16 -116 59 -215 150 -76 70 -177 143 -198 143 -8 0 3 -13 24 -28z"/>
<path d="M2146 628 c6 -26 4 -28 -27 -28 -48 0 -61 -12 -54 -43 5 -18 17 -30
41 -37 19 -7 42 -19 51 -28 15 -16 16 -12 10 55 -3 40 -11 81 -17 90 -8 15 -9
13 -4 -9z"/>
<path d="M2030 457 c-25 -22 -25 -22 -7 -57 10 -19 16 -45 14 -57 l-4 -23 39
23 c39 21 88 89 88 118 -1 8 -7 -1 -15 -20 l-15 -34 -21 27 c-33 42 -51 47
-79 23z"/>
<path d="M1935 423 c-24 -4 -34 -14 -52 -52 -13 -26 -23 -51 -23 -54 0 -4 20
-7 44 -7 47 0 47 0 75 88 7 24 7 32 -2 30 -7 0 -25 -3 -42 -5z"/>
<path d="M933 403 c9 -2 23 -2 30 0 6 3 -1 5 -18 5 -16 0 -22 -2 -12 -5z"/>
<path d="M835 390 c-13 -6 -5 -7 25 -3 25 3 47 7 49 9 9 8 -55 2 -74 -6z"/>
<path d="M785 370 c-3 -6 1 -7 9 -4 18 7 21 14 7 14 -6 0 -13 -4 -16 -10z"/>
<path d="M749 339 c-12 -24 -3 -93 11 -84 5 3 5 16 -2 30 -8 19 -8 31 0 50 14
30 7 33 -9 4z"/>
<path d="M802 308 c-13 -13 -16 -74 -4 -82 4 -2 6 11 4 30 -2 19 1 41 8 49 15
18 9 20 -8 3z"/>
<path d="M1087 153 c-4 -3 -8 -20 -8 -37 l-1 -31 -8 30 c-6 25 -8 26 -9 7 0
-13 4 -33 10 -44 8 -16 8 -23 -2 -30 -11 -7 -9 -8 4 -4 10 3 27 6 38 6 23 0
21 20 -4 39 -13 9 -18 22 -15 42 5 31 5 32 -5 22z m19 -90 c-7 -7 -26 7 -26
19 0 6 6 6 15 -2 9 -7 13 -15 11 -17z"/>
</g>
</svg>
